<?xml version="1.0" encoding="UTF-8" standalone="no"?>
<!DOCTYPE svg PUBLIC "-//W3C//DTD SVG 1.1//EN"
 "http://www.w3.org/Graphics/SVG/1.1/DTD/svg11.dtd">
<!-- Generated by graphviz version 2.38.0 (20140413.2041)
 -->
<!-- Title: click_detector Pages: 1 -->
<svg width="161pt" height="218pt"
 viewBox="0.00 0.00 160.65 218.00" xmlns="http://www.w3.org/2000/svg" xmlns:xlink="http://www.w3.org/1999/xlink">
<g id="graph0" class="graph" transform="scale(1 1) rotate(0) translate(4 214)">
<title>click_detector</title>
<polygon fill="white" stroke="none" points="-4,4 -4,-214 156.646,-214 156.646,4 -4,4"/>
<!-- OUTSIDE -->
<g id="node1" class="node"><title>OUTSIDE</title>
<ellipse fill="none" stroke="black" cx="90.6465" cy="-192" rx="48.1917" ry="18"/>
<text text-anchor="middle" x="90.6465" y="-188.3" font-family="Times,serif" font-size="14.00">OUTSIDE</text>
</g>
<!-- INSIDE -->
<g id="node2" class="node"><title>INSIDE</title>
<ellipse fill="none" stroke="black" cx="39.6465" cy="-105" rx="39.7935" ry="18"/>
<text text-anchor="middle" x="39.6465" y="-101.3" font-family="Times,serif" font-size="14.00">INSIDE</text>
</g>
<!-- OUTSIDE&#45;&gt;INSIDE -->
<g id="edge1" class="edge"><title>OUTSIDE&#45;&gt;INSIDE</title>
<path fill="none" stroke="black" d="M61.8143,-177.421C53.4912,-171.991 45.3842,-164.882 40.6465,-156 36.9943,-149.153 35.7703,-140.993 35.7242,-133.271"/>
<polygon fill="black" stroke="black" points="39.2249,-133.352 36.2741,-123.177 32.2353,-132.971 39.2249,-133.352"/>
<text text-anchor="middle" x="54.6465" y="-144.8" font-family="Times,serif" font-size="14.00">enter</text>
</g>
<!-- INSIDE&#45;&gt;OUTSIDE -->
<g id="edge4" class="edge"><title>INSIDE&#45;&gt;OUTSIDE</title>
<path fill="none" stroke="black" d="M54.5074,-122.02C59.381,-127.749 64.5832,-134.42 68.6465,-141 73.1311,-148.262 77.1816,-156.598 80.549,-164.355"/>
<polygon fill="black" stroke="black" points="77.3761,-165.841 84.4301,-173.746 83.8454,-163.168 77.3761,-165.841"/>
<text text-anchor="middle" x="91.1465" y="-144.8" font-family="Times,serif" font-size="14.00">leave</text>
</g>
<!-- INSIDE&#45;&gt;INSIDE -->
<g id="edge2" class="edge"><title>INSIDE&#45;&gt;INSIDE</title>
<path fill="none" stroke="black" d="M75.3936,-112.875C87.5345,-112.916 97.293,-110.291 97.293,-105 97.293,-101.28 92.4685,-98.8776 85.3837,-97.7936"/>
<polygon fill="black" stroke="black" points="85.6049,-94.3007 75.3936,-97.1255 85.1377,-101.285 85.6049,-94.3007"/>
<text text-anchor="middle" x="104.293" y="-101.3" font-family="Times,serif" font-size="14.00">up</text>
</g>
<!-- DOWN -->
<g id="node3" class="node"><title>DOWN</title>
<ellipse fill="none" stroke="black" cx="93.6465" cy="-18" rx="38.1938" ry="18"/>
<text text-anchor="middle" x="93.6465" y="-14.3" font-family="Times,serif" font-size="14.00">DOWN</text>
</g>
<!-- INSIDE&#45;&gt;DOWN -->
<g id="edge3" class="edge"><title>INSIDE&#45;&gt;DOWN</title>
<path fill="none" stroke="black" d="M36.1764,-86.7704C35.027,-76.625 35.1998,-63.8858 40.6465,-54 44.5749,-46.8698 50.6455,-40.9412 57.2959,-36.1142"/>
<polygon fill="black" stroke="black" points="59.3887,-38.9299 65.9123,-30.5817 55.6065,-33.0396 59.3887,-38.9299"/>
<text text-anchor="middle" x="56.1465" y="-57.8" font-family="Times,serif" font-size="14.00">down</text>
</g>
<!-- DOWN&#45;&gt;OUTSIDE -->
<g id="edge6" class="edge"><title>DOWN&#45;&gt;OUTSIDE</title>
<path fill="none" stroke="black" d="M102.388,-35.7863C108.871,-49.2291 117.163,-68.7851 120.646,-87 123.652,-102.715 123.209,-107.207 120.646,-123 118.282,-137.573 112.038,-152.702 105.856,-164.98"/>
<polygon fill="black" stroke="black" points="102.585,-163.677 100.985,-174.15 108.767,-166.96 102.585,-163.677"/>
<text text-anchor="middle" x="138.146" y="-101.3" font-family="Times,serif" font-size="14.00">leave</text>
</g>
<!-- DOWN&#45;&gt;INSIDE -->
<g id="edge5" class="edge"><title>DOWN&#45;&gt;INSIDE</title>
<path fill="none" stroke="black" d="M87.7964,-35.9076C83.946,-45.9388 78.378,-58.6711 71.6465,-69 68.9774,-73.0955 65.825,-77.174 62.5571,-81.0231"/>
<polygon fill="black" stroke="black" points="59.8878,-78.757 55.8049,-88.5336 65.0934,-83.4371 59.8878,-78.757"/>
<text text-anchor="middle" x="87.6465" y="-57.8" font-family="Times,serif" font-size="14.00">up</text>
</g>
</g>
</svg>
