<?xml version="1.0" encoding="UTF-8" standalone="no"?>
<!DOCTYPE svg PUBLIC "-//W3C//DTD SVG 1.1//EN"
 "http://www.w3.org/Graphics/SVG/1.1/DTD/svg11.dtd">
<!-- Generated by graphviz version 2.38.0 (20140413.2041)
 -->
<!-- Title: click_detector Pages: 1 -->
<svg width="266pt" height="392pt"
 viewBox="0.00 0.00 265.90 392.00" xmlns="http://www.w3.org/2000/svg" xmlns:xlink="http://www.w3.org/1999/xlink">
<g id="graph0" class="graph" transform="scale(1 1) rotate(0) translate(4 388)">
<title>click_detector</title>
<polygon fill="white" stroke="none" points="-4,4 -4,-388 261.899,-388 261.899,4 -4,4"/>
<!-- OUTSIDE -->
<g id="node1" class="node"><title>OUTSIDE</title>
<ellipse fill="none" stroke="black" cx="149.899" cy="-366" rx="48.1917" ry="18"/>
<text text-anchor="middle" x="149.899" y="-362.3" font-family="Times,serif" font-size="14.00">OUTSIDE</text>
</g>
<!-- INSIDE -->
<g id="node2" class="node"><title>INSIDE</title>
<ellipse fill="none" stroke="black" cx="107.899" cy="-279" rx="39.7935" ry="18"/>
<text text-anchor="middle" x="107.899" y="-275.3" font-family="Times,serif" font-size="14.00">INSIDE</text>
</g>
<!-- OUTSIDE&#45;&gt;INSIDE -->
<g id="edge1" class="edge"><title>OUTSIDE&#45;&gt;INSIDE</title>
<path fill="none" stroke="black" d="M120.961,-351.477C112.632,-346.05 104.548,-338.928 99.8991,-330 96.2294,-322.952 96.1486,-314.647 97.5797,-306.852"/>
<polygon fill="black" stroke="black" points="101,-307.609 100.157,-297.047 94.2298,-305.829 101,-307.609"/>
<text text-anchor="middle" x="113.899" y="-318.8" font-family="Times,serif" font-size="14.00">enter</text>
</g>
<!-- ERROR -->
<g id="node3" class="node"><title>ERROR</title>
<ellipse fill="none" stroke="black" cx="177.899" cy="-18" rx="40.0939" ry="18"/>
<text text-anchor="middle" x="177.899" y="-14.3" font-family="Times,serif" font-size="14.00">ERROR</text>
</g>
<!-- OUTSIDE&#45;&gt;ERROR -->
<g id="edge2" class="edge"><title>OUTSIDE&#45;&gt;ERROR</title>
<path fill="none" stroke="black" d="M183.25,-352.964C212.669,-339.95 250.899,-316.096 250.899,-280 250.899,-280 250.899,-280 250.899,-104 250.899,-76.7669 229.067,-53.8989 209.281,-38.7663"/>
<polygon fill="black" stroke="black" points="211.148,-35.7969 200.997,-32.7643 207.041,-41.4656 211.148,-35.7969"/>
<text text-anchor="middle" x="254.399" y="-188.3" font-family="Times,serif" font-size="14.00">*</text>
</g>
<!-- INSIDE&#45;&gt;OUTSIDE -->
<g id="edge5" class="edge"><title>INSIDE&#45;&gt;OUTSIDE</title>
<path fill="none" stroke="black" d="M117.823,-296.541C121.158,-302.311 124.812,-308.875 127.899,-315 131.74,-322.622 135.6,-331.065 138.99,-338.809"/>
<polygon fill="black" stroke="black" points="135.832,-340.325 142.997,-348.13 142.263,-337.561 135.832,-340.325"/>
<text text-anchor="middle" x="150.399" y="-318.8" font-family="Times,serif" font-size="14.00">leave</text>
</g>
<!-- INSIDE&#45;&gt;ERROR -->
<g id="edge6" class="edge"><title>INSIDE&#45;&gt;ERROR</title>
<path fill="none" stroke="black" d="M129.504,-263.885C145.896,-251.791 167.209,-232.746 176.899,-210 200.124,-155.484 191.412,-84.0094 184.033,-45.8157"/>
<polygon fill="black" stroke="black" points="187.452,-45.0612 182.015,-35.9674 180.594,-46.4665 187.452,-45.0612"/>
<text text-anchor="middle" x="205.899" y="-144.8" font-family="Times,serif" font-size="14.00">enter</text>
</g>
<!-- UP -->
<g id="node4" class="node"><title>UP</title>
<ellipse fill="none" stroke="black" cx="140.899" cy="-192" rx="27" ry="18"/>
<text text-anchor="middle" x="140.899" y="-188.3" font-family="Times,serif" font-size="14.00">UP</text>
</g>
<!-- INSIDE&#45;&gt;UP -->
<g id="edge3" class="edge"><title>INSIDE&#45;&gt;UP</title>
<path fill="none" stroke="black" d="M114.419,-261.207C119.074,-249.216 125.427,-232.851 130.744,-219.157"/>
<polygon fill="black" stroke="black" points="134.036,-220.347 134.393,-209.758 127.511,-217.814 134.036,-220.347"/>
<text text-anchor="middle" x="133.899" y="-231.8" font-family="Times,serif" font-size="14.00">up</text>
</g>
<!-- DOWN -->
<g id="node5" class="node"><title>DOWN</title>
<ellipse fill="none" stroke="black" cx="81.8991" cy="-105" rx="38.1938" ry="18"/>
<text text-anchor="middle" x="81.8991" y="-101.3" font-family="Times,serif" font-size="14.00">DOWN</text>
</g>
<!-- INSIDE&#45;&gt;DOWN -->
<g id="edge4" class="edge"><title>INSIDE&#45;&gt;DOWN</title>
<path fill="none" stroke="black" d="M83.1612,-264.665C64.3918,-253.012 39.9896,-234.18 28.8991,-210 15.8063,-181.455 37.9864,-149.359 57.5325,-128.471"/>
<polygon fill="black" stroke="black" points="60.0489,-130.904 64.5444,-121.31 55.0473,-126.007 60.0489,-130.904"/>
<text text-anchor="middle" x="44.3991" y="-188.3" font-family="Times,serif" font-size="14.00">down</text>
</g>
<!-- UP&#45;&gt;OUTSIDE -->
<g id="edge11" class="edge"><title>UP&#45;&gt;OUTSIDE</title>
<path fill="none" stroke="black" d="M149.098,-209.563C160.827,-235.436 179.833,-286.941 168.899,-330 168.124,-333.051 167.024,-336.124 165.739,-339.115"/>
<polygon fill="black" stroke="black" points="162.509,-337.749 161.174,-348.259 168.772,-340.875 162.509,-337.749"/>
<text text-anchor="middle" x="187.399" y="-275.3" font-family="Times,serif" font-size="14.00">leave</text>
</g>
<!-- UP&#45;&gt;ERROR -->
<g id="edge12" class="edge"><title>UP&#45;&gt;ERROR</title>
<path fill="none" stroke="black" d="M144.582,-173.879C151.009,-144.001 164.322,-82.1129 172.032,-46.2736"/>
<polygon fill="black" stroke="black" points="175.55,-46.5641 174.231,-36.0516 168.706,-45.0919 175.55,-46.5641"/>
<text text-anchor="middle" x="167.399" y="-101.3" font-family="Times,serif" font-size="14.00">*</text>
</g>
<!-- UP&#45;&gt;DOWN -->
<g id="edge10" class="edge"><title>UP&#45;&gt;DOWN</title>
<path fill="none" stroke="black" d="M129.621,-175.374C125.298,-169.342 120.34,-162.371 115.899,-156 110.169,-147.778 103.984,-138.735 98.4802,-130.627"/>
<polygon fill="black" stroke="black" points="101.333,-128.598 92.8297,-122.278 95.5362,-132.521 101.333,-128.598"/>
<text text-anchor="middle" x="131.399" y="-144.8" font-family="Times,serif" font-size="14.00">down</text>
</g>
<!-- DOWN&#45;&gt;OUTSIDE -->
<g id="edge8" class="edge"><title>DOWN&#45;&gt;OUTSIDE</title>
<path fill="none" stroke="black" d="M57.4207,-119.115C48.6564,-124.838 39.3584,-132.254 32.8991,-141 5.16929,-178.545 -9.34506,-199.627 7.89908,-243 26.9686,-290.964 77.0244,-326.369 112.284,-346.338"/>
<polygon fill="black" stroke="black" points="110.899,-349.571 121.349,-351.32 114.271,-343.436 110.899,-349.571"/>
<text text-anchor="middle" x="22.3991" y="-231.8" font-family="Times,serif" font-size="14.00">leave</text>
</g>
<!-- DOWN&#45;&gt;INSIDE -->
<g id="edge7" class="edge"><title>DOWN&#45;&gt;INSIDE</title>
<path fill="none" stroke="black" d="M82.5437,-123.037C83.517,-143.722 85.8188,-179.613 90.8991,-210 93.2035,-223.784 96.8616,-238.886 100.195,-251.349"/>
<polygon fill="black" stroke="black" points="96.8536,-252.398 102.882,-261.11 103.603,-250.54 96.8536,-252.398"/>
<text text-anchor="middle" x="97.8991" y="-188.3" font-family="Times,serif" font-size="14.00">up</text>
</g>
<!-- DOWN&#45;&gt;ERROR -->
<g id="edge9" class="edge"><title>DOWN&#45;&gt;ERROR</title>
<path fill="none" stroke="black" d="M99.062,-88.8037C113.986,-75.5898 135.807,-56.2693 152.71,-41.3029"/>
<polygon fill="black" stroke="black" points="155.394,-43.6009 160.561,-34.3513 150.754,-38.36 155.394,-43.6009"/>
<text text-anchor="middle" x="139.399" y="-57.8" font-family="Times,serif" font-size="14.00">*</text>
</g>
</g>
</svg>
