<?xml version="1.0" encoding="UTF-8" standalone="no"?>
<!DOCTYPE svg PUBLIC "-//W3C//DTD SVG 1.1//EN"
 "http://www.w3.org/Graphics/SVG/1.1/DTD/svg11.dtd">
<!-- Generated by graphviz version 2.38.0 (20140413.2041)
 -->
<!-- Title: click_detector Pages: 1 -->
<svg width="315pt" height="305pt"
 viewBox="0.00 0.00 314.57 305.00" xmlns="http://www.w3.org/2000/svg" xmlns:xlink="http://www.w3.org/1999/xlink">
<g id="graph0" class="graph" transform="scale(1 1) rotate(0) translate(4 301)">
<title>click_detector</title>
<polygon fill="white" stroke="none" points="-4,4 -4,-301 310.565,-301 310.565,4 -4,4"/>
<!-- OUTSIDE -->
<g id="node1" class="node"><title>OUTSIDE</title>
<ellipse fill="none" stroke="black" cx="79.5722" cy="-279" rx="48.1917" ry="18"/>
<text text-anchor="middle" x="79.5722" y="-275.3" font-family="Times,serif" font-size="14.00">OUTSIDE</text>
</g>
<!-- INSIDE -->
<g id="node2" class="node"><title>INSIDE</title>
<ellipse fill="none" stroke="black" cx="100.572" cy="-192" rx="39.7935" ry="18"/>
<text text-anchor="middle" x="100.572" y="-188.3" font-family="Times,serif" font-size="14.00">INSIDE</text>
</g>
<!-- OUTSIDE&#45;&gt;INSIDE -->
<g id="edge1" class="edge"><title>OUTSIDE&#45;&gt;INSIDE</title>
<path fill="none" stroke="black" d="M50.7548,-264.481C35.2028,-255.208 20.8196,-242.073 29.5722,-228 35.8594,-217.891 46.0212,-210.616 56.7156,-205.414"/>
<polygon fill="black" stroke="black" points="58.3579,-208.518 66.1668,-201.358 55.597,-202.086 58.3579,-208.518"/>
<text text-anchor="middle" x="69.0722" y="-231.8" font-family="Times,serif" font-size="14.00">mouseEntered</text>
</g>
<!-- INSIDE&#45;&gt;OUTSIDE -->
<g id="edge2" class="edge"><title>INSIDE&#45;&gt;OUTSIDE</title>
<path fill="none" stroke="black" d="M107.434,-210.061C110.388,-219.914 112.388,-232.414 108.572,-243 107.197,-246.816 105.204,-250.511 102.898,-253.979"/>
<polygon fill="black" stroke="black" points="99.9984,-252.009 96.6919,-262.075 105.554,-256.268 99.9984,-252.009"/>
<text text-anchor="middle" x="147.572" y="-231.8" font-family="Times,serif" font-size="14.00">mouseExited</text>
</g>
<!-- KEY_PRESSED -->
<g id="node3" class="node"><title>KEY_PRESSED</title>
<ellipse fill="none" stroke="black" cx="97.5722" cy="-18" rx="70.6878" ry="18"/>
<text text-anchor="middle" x="97.5722" y="-14.3" font-family="Times,serif" font-size="14.00">KEY_PRESSED</text>
</g>
<!-- INSIDE&#45;&gt;KEY_PRESSED -->
<g id="edge3" class="edge"><title>INSIDE&#45;&gt;KEY_PRESSED</title>
<path fill="none" stroke="black" d="M94.0861,-173.974C89.2781,-160.399 83.1331,-140.783 80.5722,-123 76.8021,-96.82 82.7121,-67.0407 88.5712,-46.0772"/>
<polygon fill="black" stroke="black" points="91.993,-46.8495 91.4895,-36.2667 85.2835,-44.8536 91.993,-46.8495"/>
<text text-anchor="middle" x="111.072" y="-101.3" font-family="Times,serif" font-size="14.00">keyPressed</text>
</g>
<!-- KEY_RELEASED -->
<g id="node4" class="node"><title>KEY_RELEASED</title>
<ellipse fill="none" stroke="black" cx="228.572" cy="-105" rx="77.9862" ry="18"/>
<text text-anchor="middle" x="228.572" y="-101.3" font-family="Times,serif" font-size="14.00">KEY_RELEASED</text>
</g>
<!-- INSIDE&#45;&gt;KEY_RELEASED -->
<g id="edge4" class="edge"><title>INSIDE&#45;&gt;KEY_RELEASED</title>
<path fill="none" stroke="black" d="M110.339,-174.247C117.32,-163.511 127.577,-149.96 139.572,-141 149.133,-133.859 160.341,-127.968 171.517,-123.19"/>
<polygon fill="black" stroke="black" points="172.888,-126.411 180.861,-119.434 170.277,-119.916 172.888,-126.411"/>
<text text-anchor="middle" x="174.072" y="-144.8" font-family="Times,serif" font-size="14.00">keyReleased</text>
</g>
<!-- KEY_PRESSED&#45;&gt;OUTSIDE -->
<g id="edge9" class="edge"><title>KEY_PRESSED&#45;&gt;OUTSIDE</title>
<path fill="none" stroke="black" d="M80.0054,-35.5584C58.3323,-57.3225 22.6299,-97.8771 8.57222,-141 -5.62945,-184.565 -1.97654,-204.963 23.5722,-243 27.8353,-249.347 33.6774,-254.762 39.9866,-259.3"/>
<polygon fill="black" stroke="black" points="38.4708,-262.487 48.7752,-264.951 42.2564,-256.599 38.4708,-262.487"/>
<text text-anchor="middle" x="44.5722" y="-144.8" font-family="Times,serif" font-size="14.00">mouseExited</text>
</g>
<!-- KEY_PRESSED&#45;&gt;KEY_PRESSED -->
<g id="edge7" class="edge"><title>KEY_PRESSED&#45;&gt;KEY_PRESSED</title>
<path fill="none" stroke="black" d="M161.862,-25.663C176.069,-24.943 186.416,-22.3887 186.416,-18 186.416,-14.7428 180.716,-12.496 171.969,-11.2596"/>
<polygon fill="black" stroke="black" points="172.138,-7.76061 161.862,-10.337 171.502,-14.7316 172.138,-7.76061"/>
<text text-anchor="middle" x="216.916" y="-14.3" font-family="Times,serif" font-size="14.00">keyPressed</text>
</g>
<!-- KEY_PRESSED&#45;&gt;KEY_RELEASED -->
<g id="edge8" class="edge"><title>KEY_PRESSED&#45;&gt;KEY_RELEASED</title>
<path fill="none" stroke="black" d="M149.436,-30.2627C165.693,-35.5619 182.933,-43.18 196.572,-54 204.518,-60.3031 211.083,-69.1486 216.155,-77.6504"/>
<polygon fill="black" stroke="black" points="213.189,-79.5208 221.068,-86.6044 219.326,-76.1537 213.189,-79.5208"/>
<text text-anchor="middle" x="245.072" y="-57.8" font-family="Times,serif" font-size="14.00">keyReleased</text>
</g>
<!-- KEY_RELEASED&#45;&gt;OUTSIDE -->
<g id="edge6" class="edge"><title>KEY_RELEASED&#45;&gt;OUTSIDE</title>
<path fill="none" stroke="black" d="M228.316,-123.258C226.945,-152.003 220.028,-209.803 187.572,-243 173.609,-257.282 153.778,-265.741 134.912,-270.75"/>
<polygon fill="black" stroke="black" points="134.089,-267.348 125.171,-273.067 135.709,-274.158 134.089,-267.348"/>
<text text-anchor="middle" x="257.572" y="-188.3" font-family="Times,serif" font-size="14.00">mouseExited</text>
</g>
<!-- KEY_RELEASED&#45;&gt;KEY_PRESSED -->
<g id="edge5" class="edge"><title>KEY_RELEASED&#45;&gt;KEY_PRESSED</title>
<path fill="none" stroke="black" d="M178.641,-90.9883C163.889,-85.6714 148.298,-78.4838 135.572,-69 126.786,-62.4524 119.042,-53.3398 112.876,-44.6852"/>
<polygon fill="black" stroke="black" points="115.729,-42.6555 107.256,-36.2953 109.913,-46.5514 115.729,-42.6555"/>
<text text-anchor="middle" x="166.072" y="-57.8" font-family="Times,serif" font-size="14.00">keyPressed</text>
</g>
</g>
</svg>
