<?xml version="1.0" encoding="UTF-8" standalone="no"?>
<!DOCTYPE svg PUBLIC "-//W3C//DTD SVG 1.1//EN"
 "http://www.w3.org/Graphics/SVG/1.1/DTD/svg11.dtd">
<!-- Generated by graphviz version 2.38.0 (20140413.2041)
 -->
<!-- Title: click_detector Pages: 1 -->
<svg width="467pt" height="305pt"
 viewBox="0.00 0.00 467.42 305.00" xmlns="http://www.w3.org/2000/svg" xmlns:xlink="http://www.w3.org/1999/xlink">
<g id="graph0" class="graph" transform="scale(1 1) rotate(0) translate(4 301)">
<title>click_detector</title>
<polygon fill="white" stroke="none" points="-4,4 -4,-301 463.424,-301 463.424,4 -4,4"/>
<!-- OUTSIDE -->
<g id="node1" class="node"><title>OUTSIDE</title>
<ellipse fill="none" stroke="black" cx="97.8823" cy="-279" rx="48.1917" ry="18"/>
<text text-anchor="middle" x="97.8823" y="-275.3" font-family="Times,serif" font-size="14.00">OUTSIDE</text>
</g>
<!-- INSIDE -->
<g id="node2" class="node"><title>INSIDE</title>
<ellipse fill="none" stroke="black" cx="82.8823" cy="-192" rx="39.7935" ry="18"/>
<text text-anchor="middle" x="82.8823" y="-188.3" font-family="Times,serif" font-size="14.00">INSIDE</text>
</g>
<!-- OUTSIDE&#45;&gt;INSIDE -->
<g id="edge1" class="edge"><title>OUTSIDE&#45;&gt;INSIDE</title>
<path fill="none" stroke="black" d="M68.9445,-264.477C60.615,-259.05 52.5309,-251.928 47.8823,-243 42.862,-233.358 47.4868,-223.414 54.8322,-214.958"/>
<polygon fill="black" stroke="black" points="57.5372,-217.204 62.1443,-207.663 52.5931,-212.248 57.5372,-217.204"/>
<text text-anchor="middle" x="87.3823" y="-231.8" font-family="Times,serif" font-size="14.00">mouseEntered</text>
</g>
<!-- INSIDE&#45;&gt;OUTSIDE -->
<g id="edge2" class="edge"><title>INSIDE&#45;&gt;OUTSIDE</title>
<path fill="none" stroke="black" d="M107.262,-206.357C115,-211.945 122.642,-219.208 126.882,-228 131.089,-236.721 128.005,-245.97 122.529,-254.111"/>
<polygon fill="black" stroke="black" points="119.642,-252.118 116.161,-262.125 125.123,-256.473 119.642,-252.118"/>
<text text-anchor="middle" x="164.882" y="-231.8" font-family="Times,serif" font-size="14.00">mouseExited</text>
</g>
<!-- INSIDE&#45;&gt;INSIDE -->
<g id="edge4" class="edge"><title>INSIDE&#45;&gt;INSIDE</title>
<path fill="none" stroke="black" d="M118.629,-199.875C130.77,-199.916 140.529,-197.291 140.529,-192 140.529,-188.28 135.704,-185.878 128.619,-184.794"/>
<polygon fill="black" stroke="black" points="128.841,-181.301 118.629,-184.125 128.374,-188.285 128.841,-181.301"/>
<text text-anchor="middle" x="178.529" y="-188.3" font-family="Times,serif" font-size="14.00">mouseMoved</text>
</g>
<!-- BUTTON_PRESSED -->
<g id="node3" class="node"><title>BUTTON_PRESSED</title>
<ellipse fill="none" stroke="black" cx="108.882" cy="-18" rx="88.2844" ry="18"/>
<text text-anchor="middle" x="108.882" y="-14.3" font-family="Times,serif" font-size="14.00">BUTTON_PRESSED</text>
</g>
<!-- INSIDE&#45;&gt;BUTTON_PRESSED -->
<g id="edge3" class="edge"><title>INSIDE&#45;&gt;BUTTON_PRESSED</title>
<path fill="none" stroke="black" d="M82.1157,-173.915C81.5115,-153.182 81.5139,-117.244 86.8823,-87 89.3558,-73.0649 93.9926,-58.0482 98.3739,-45.68"/>
<polygon fill="black" stroke="black" points="101.769,-46.5891 101.941,-35.9956 95.2003,-44.1696 101.769,-46.5891"/>
<text text-anchor="middle" x="125.882" y="-101.3" font-family="Times,serif" font-size="14.00">mousePressed</text>
</g>
<!-- BUTTON_RELEASED -->
<g id="node4" class="node"><title>BUTTON_RELEASED</title>
<ellipse fill="none" stroke="black" cx="269.882" cy="-105" rx="95.5831" ry="18"/>
<text text-anchor="middle" x="269.882" y="-101.3" font-family="Times,serif" font-size="14.00">BUTTON_RELEASED</text>
</g>
<!-- INSIDE&#45;&gt;BUTTON_RELEASED -->
<g id="edge5" class="edge"><title>INSIDE&#45;&gt;BUTTON_RELEASED</title>
<path fill="none" stroke="black" d="M102.288,-176.301C117.366,-165.411 139.136,-150.818 159.882,-141 174.584,-134.043 191.019,-127.98 206.611,-122.942"/>
<polygon fill="black" stroke="black" points="207.693,-126.271 216.187,-119.94 205.598,-119.592 207.693,-126.271"/>
<text text-anchor="middle" x="202.382" y="-144.8" font-family="Times,serif" font-size="14.00">mouseReleased</text>
</g>
<!-- BUTTON_PRESSED&#45;&gt;OUTSIDE -->
<g id="edge10" class="edge"><title>BUTTON_PRESSED&#45;&gt;OUTSIDE</title>
<path fill="none" stroke="black" d="M87.7413,-35.6946C62.6495,-57.0034 22.1615,-96.4825 5.88229,-141 -10.6282,-186.15 10.8288,-206.301 41.8823,-243 47.0374,-249.092 53.5295,-254.459 60.2502,-259.045"/>
<polygon fill="black" stroke="black" points="58.4753,-262.063 68.8022,-264.431 62.2059,-256.14 58.4753,-262.063"/>
<text text-anchor="middle" x="41.8823" y="-144.8" font-family="Times,serif" font-size="14.00">mouseExited</text>
</g>
<!-- BUTTON_PRESSED&#45;&gt;BUTTON_PRESSED -->
<g id="edge11" class="edge"><title>BUTTON_PRESSED&#45;&gt;BUTTON_PRESSED</title>
<path fill="none" stroke="black" d="M189.605,-25.4708C204.667,-24.5508 215.274,-22.0605 215.274,-18 215.274,-14.9229 209.183,-12.7475 199.677,-11.474"/>
<polygon fill="black" stroke="black" points="199.889,-7.97849 189.605,-10.5292 199.235,-14.9479 199.889,-7.97849"/>
<text text-anchor="middle" x="253.274" y="-14.3" font-family="Times,serif" font-size="14.00">mouseMoved</text>
</g>
<!-- BUTTON_PRESSED&#45;&gt;BUTTON_RELEASED -->
<g id="edge9" class="edge"><title>BUTTON_PRESSED&#45;&gt;BUTTON_RELEASED</title>
<path fill="none" stroke="black" d="M176.785,-29.6327C196.073,-34.8371 216.317,-42.5594 232.882,-54 241.946,-60.2595 249.661,-69.4686 255.663,-78.2831"/>
<polygon fill="black" stroke="black" points="252.775,-80.2645 261.08,-86.8422 258.689,-76.5207 252.775,-80.2645"/>
<text text-anchor="middle" x="289.382" y="-57.8" font-family="Times,serif" font-size="14.00">mouseReleased</text>
</g>
<!-- BUTTON_RELEASED&#45;&gt;OUTSIDE -->
<g id="edge8" class="edge"><title>BUTTON_RELEASED&#45;&gt;OUTSIDE</title>
<path fill="none" stroke="black" d="M266.836,-123.44C260.707,-152.992 243.978,-212.651 204.882,-243 189.243,-255.14 169.228,-263.153 150.748,-268.403"/>
<polygon fill="black" stroke="black" points="149.749,-265.047 140.967,-270.975 151.529,-271.817 149.749,-265.047"/>
<text text-anchor="middle" x="286.882" y="-188.3" font-family="Times,serif" font-size="14.00">mouseExited</text>
</g>
<!-- BUTTON_RELEASED&#45;&gt;BUTTON_PRESSED -->
<g id="edge6" class="edge"><title>BUTTON_RELEASED&#45;&gt;BUTTON_PRESSED</title>
<path fill="none" stroke="black" d="M206.991,-91.3701C189.297,-86.128 170.607,-78.8857 154.882,-69 144.484,-62.4631 134.935,-52.972 127.264,-44.0114"/>
<polygon fill="black" stroke="black" points="129.8,-41.583 120.777,-36.0312 124.369,-45.9986 129.8,-41.583"/>
<text text-anchor="middle" x="193.882" y="-57.8" font-family="Times,serif" font-size="14.00">mousePressed</text>
</g>
<!-- BUTTON_RELEASED&#45;&gt;BUTTON_RELEASED -->
<g id="edge7" class="edge"><title>BUTTON_RELEASED&#45;&gt;BUTTON_RELEASED</title>
<path fill="none" stroke="black" d="M356.998,-112.413C372.556,-111.45 383.424,-108.979 383.424,-105 383.424,-101.954 377.054,-99.7916 367.085,-98.5128"/>
<polygon fill="black" stroke="black" points="367.276,-95.0158 356.998,-97.5869 366.636,-101.986 367.276,-95.0158"/>
<text text-anchor="middle" x="421.424" y="-101.3" font-family="Times,serif" font-size="14.00">mouseMoved</text>
</g>
</g>
</svg>
